# xmcd
#
# Track frame offsets:
#	225
#	18070
#	36677
#	53890
#	77295
#	101734
#	121085
#	138257
#	159970
#	178920
#	204285
#	217590
#	239440
#	261750
#
# Disc length: 3823 seconds
#
# Revision: 0
# Processed by: cddbd v1.5.2PL0 Copyright (c) Steve Scherf et al.
# Submitted via: EasyCDDAExtractor 2011.0.0.0
#
DISCID=b00eec0e
DTITLE=Elkie Brooks -  Live Elkie Brooks
DYEAR=1900
DGENRE=Blues
TTITLE0=Butterfly Blue
TTITLE1=Love Potion Number Nine
TTITLE2=Do Right Woman, do right man
TTITLE3=Going back
TTITLE4=Fool if you think its over
TTITLE5=Our love
TTITLE6=Gasoline Alley
TTITLE7=Can't find my way home
TTITLE8=Pearl's a singer
TTITLE9=Here's that rainy day
TTITLE10=What'll I do
TTITLE11=Nights in white satin
TTITLE12=Only women bleed
TTITLE13=No more the fool
EXTD=
EXTT0=
EXTT1=
EXTT2=
EXTT3=
EXTT4=
EXTT5=
EXTT6=
EXTT7=
EXTT8=
EXTT9=
EXTT10=
EXTT11=
EXTT12=
EXTT13=
PLAYORDER=
